<?xml version="1.0" encoding="UTF-8" standalone="no"?>
<!-- Created with Inkscape (http://www.inkscape.org/) -->

<svg
   xmlns:dc="http://purl.org/dc/elements/1.1/"
   xmlns:cc="http://creativecommons.org/ns#"
   xmlns:rdf="http://www.w3.org/1999/02/22-rdf-syntax-ns#"
   xmlns:svg="http://www.w3.org/2000/svg"
   xmlns="http://www.w3.org/2000/svg"
   xmlns:xlink="http://www.w3.org/1999/xlink"
   xmlns:sodipodi="http://sodipodi.sourceforge.net/DTD/sodipodi-0.dtd"
   xmlns:inkscape="http://www.inkscape.org/namespaces/inkscape"
   width="1105.3036"
   height="3.1691999"
   id="svg7478"
   version="1.1"
   inkscape:version="0.48.3.1 r9886"
   sodipodi:docname="Neues Dokument 8">
  <defs
     id="defs7480">
    <linearGradient
       inkscape:collect="always"
       xlink:href="#linearGradient4988-6-9"
       id="linearGradient7418"
       gradientUnits="userSpaceOnUse"
       gradientTransform="matrix(0.89638159,0,0,0.89638159,35.782608,-394.24844)"
       x1="-469.72092"
       y1="73.348755"
       x2="144.45181"
       y2="73.348755" />
    <linearGradient
       id="linearGradient4988-6-9">
      <stop
         style="stop-color:#112b00;stop-opacity:0.2;"
         offset="0"
         id="stop4990-2-4" />
      <stop
         style="stop-color:#112b00;stop-opacity:1;"
         offset="1"
         id="stop4992-9-9" />
    </linearGradient>
    <linearGradient
       y2="73.348755"
       x2="144.45181"
       y1="73.348755"
       x1="-469.72092"
       gradientTransform="matrix(0.89638159,0,0,0.89638159,171.25457,-287.672)"
       gradientUnits="userSpaceOnUse"
       id="linearGradient7476"
       xlink:href="#linearGradient4988-6-9"
       inkscape:collect="always" />
  </defs>
  <sodipodi:namedview
     id="base"
     pagecolor="#ffffff"
     bordercolor="#666666"
     borderopacity="1.0"
     inkscape:pageopacity="0.0"
     inkscape:pageshadow="2"
     inkscape:zoom="0.35"
     inkscape:cx="599.79463"
     inkscape:cy="-752.70111"
     inkscape:document-units="px"
     inkscape:current-layer="layer1"
     showgrid="false"
     fit-margin-top="0"
     fit-margin-left="0"
     fit-margin-right="0"
     fit-margin-bottom="0"
     inkscape:window-width="1920"
     inkscape:window-height="1039"
     inkscape:window-x="-2"
     inkscape:window-y="20"
     inkscape:window-maximized="1" />
  <metadata
     id="metadata7483">
    <rdf:RDF>
      <cc:Work
         rdf:about="">
        <dc:format>image/svg+xml</dc:format>
        <dc:type
           rdf:resource="http://purl.org/dc/dcmitype/StillImage" />
        <dc:title></dc:title>
      </cc:Work>
    </rdf:RDF>
  </metadata>
  <g
     inkscape:label="Ebene 1"
     inkscape:groupmode="layer"
     id="layer1"
     transform="translate(249.79463,223.50813)">
    <path
       inkscape:connector-curvature="0"
       inkscape:export-ydpi="90"
       inkscape:export-xdpi="90"
       inkscape:export-filename="/home/void/Dokumente/Development/WeFeedUs/wefeedus/resources/public/img/slider-scale.png"
       d="m -246.62543,-221.92353 c 0,0.87515 -0.7095,1.5846 -1.5846,1.5846 -0.8752,0 -1.5846,-0.70945 -1.5846,-1.5846 0,-0.87514 0.7094,-1.5846 1.5846,-1.5846 0.8751,0 1.5846,0.70946 1.5846,1.5846 z m 7.2035,0 c 0,0.87515 -0.7095,1.5846 -1.5846,1.5846 -0.8752,0 -1.5846,-0.70945 -1.5846,-1.5846 0,-0.87514 0.7094,-1.5846 1.5846,-1.5846 0.8751,0 1.5846,0.70946 1.5846,1.5846 z m 43.2209,0 c 0,0.87515 -0.7094,1.5846 -1.5846,1.5846 -0.8751,0 -1.5846,-0.70945 -1.5846,-1.5846 0,-0.87514 0.7095,-1.5846 1.5846,-1.5846 0.8752,0 1.5846,0.70946 1.5846,1.5846 z m -14.407,0 c 0,0.87515 -0.7094,1.5846 -1.5846,1.5846 -0.8751,0 -1.5846,-0.70945 -1.5846,-1.5846 0,-0.87514 0.7095,-1.5846 1.5846,-1.5846 0.8752,0 1.5846,0.70946 1.5846,1.5846 z m -21.6104,0 c 0,0.87515 -0.7095,1.5846 -1.5846,1.5846 -0.8752,0 -1.5846,-0.70945 -1.5846,-1.5846 0,-0.87514 0.7094,-1.5846 1.5846,-1.5846 0.8751,0 1.5846,0.70946 1.5846,1.5846 z m 7.2034,0 c 0,0.87515 -0.7094,1.5846 -1.5846,1.5846 -0.8751,0 -1.5845,-0.70945 -1.5845,-1.5846 0,-0.87514 0.7094,-1.5846 1.5845,-1.5846 0.8752,0 1.5846,0.70946 1.5846,1.5846 z m 7.2035,0 c 0,0.87515 -0.7094,1.5846 -1.5846,1.5846 -0.8751,0 -1.5846,-0.70945 -1.5846,-1.5846 0,-0.87514 0.7095,-1.5846 1.5846,-1.5846 0.8752,0 1.5846,0.70946 1.5846,1.5846 z m 14.407,0 c 0,0.87515 -0.7094,1.5846 -1.5846,1.5846 -0.8751,0 -1.5846,-0.70945 -1.5846,-1.5846 0,-0.87514 0.7095,-1.5846 1.5846,-1.5846 0.8752,0 1.5846,0.70946 1.5846,1.5846 z m 14.407,0 c 0,0.87515 -0.7095,1.5846 -1.5846,1.5846 -0.8751,0 -1.5846,-0.70945 -1.5846,-1.5846 0,-0.87514 0.7095,-1.5846 1.5846,-1.5846 0.8751,0 1.5846,0.70946 1.5846,1.5846 z m 7.2035,0 c 0,0.87515 -0.7095,1.5846 -1.5846,1.5846 -0.8752,0 -1.5846,-0.70945 -1.5846,-1.5846 0,-0.87514 0.7094,-1.5846 1.5846,-1.5846 0.8751,0 1.5846,0.70946 1.5846,1.5846 z m 7.2035,0 c 0,0.87515 -0.7095,1.5846 -1.5846,1.5846 -0.8752,0 -1.5846,-0.70945 -1.5846,-1.5846 0,-0.87514 0.7094,-1.5846 1.5846,-1.5846 0.8751,0 1.5846,0.70946 1.5846,1.5846 z m 7.2035,0 c 0,0.87515 -0.7095,1.5846 -1.5846,1.5846 -0.8752,0 -1.5846,-0.70945 -1.5846,-1.5846 0,-0.87514 0.7094,-1.5846 1.5846,-1.5846 0.8751,0 1.5846,0.70946 1.5846,1.5846 z m 7.2035,0 c 0,0.87515 -0.7095,1.5846 -1.5846,1.5846 -0.8752,0 -1.5846,-0.70945 -1.5846,-1.5846 0,-0.87514 0.7094,-1.5846 1.5846,-1.5846 0.8751,0 1.5846,0.70946 1.5846,1.5846 z m 7.2035,0 c 0,0.87515 -0.7095,1.5846 -1.5846,1.5846 -0.8752,0 -1.5846,-0.70945 -1.5846,-1.5846 0,-0.87514 0.7094,-1.5846 1.5846,-1.5846 0.8751,0 1.5846,0.70946 1.5846,1.5846 z m 7.2034,0 c 0,0.87515 -0.7094,1.5846 -1.5845,1.5846 -0.8752,0 -1.5846,-0.70945 -1.5846,-1.5846 0,-0.87514 0.7094,-1.5846 1.5846,-1.5846 0.8751,0 1.5845,0.70946 1.5845,1.5846 z m 7.2035,0 c 0,0.87515 -0.7094,1.5846 -1.5846,1.5846 -0.8751,0 -1.5846,-0.70945 -1.5846,-1.5846 0,-0.87514 0.7095,-1.5846 1.5846,-1.5846 0.8752,0 1.5846,0.70946 1.5846,1.5846 z m 7.2035,0 c 0,0.87515 -0.7094,1.5846 -1.5846,1.5846 -0.8751,0 -1.5846,-0.70945 -1.5846,-1.5846 0,-0.87514 0.7095,-1.5846 1.5846,-1.5846 0.8752,0 1.5846,0.70946 1.5846,1.5846 z m 7.2035,0 c 0,0.87515 -0.7094,1.5846 -1.5846,1.5846 -0.8751,0 -1.5846,-0.70945 -1.5846,-1.5846 0,-0.87514 0.7095,-1.5846 1.5846,-1.5846 0.8752,0 1.5846,0.70946 1.5846,1.5846 z m 7.2035,0 c 0,0.87515 -0.7094,1.5846 -1.5846,1.5846 -0.8751,0 -1.5846,-0.70945 -1.5846,-1.5846 0,-0.87514 0.7095,-1.5846 1.5846,-1.5846 0.8752,0 1.5846,0.70946 1.5846,1.5846 z m 7.2035,0 c 0,0.87515 -0.7094,1.5846 -1.5846,1.5846 -0.8751,0 -1.5846,-0.70945 -1.5846,-1.5846 0,-0.87514 0.7095,-1.5846 1.5846,-1.5846 0.8752,0 1.5846,0.70946 1.5846,1.5846 z m 7.2035,0 c 0,0.87515 -0.7095,1.5846 -1.5846,1.5846 -0.8751,0 -1.5846,-0.70945 -1.5846,-1.5846 0,-0.87514 0.7095,-1.5846 1.5846,-1.5846 0.8751,0 1.5846,0.70946 1.5846,1.5846 z m 7.203501,0 c 0,0.87515 -0.7095,1.5846 -1.5846,1.5846 -0.8751,0 -1.5846,-0.70945 -1.5846,-1.5846 0,-0.87514 0.7095,-1.5846 1.5846,-1.5846 0.8751,0 1.5846,0.70946 1.5846,1.5846 z m 7.2035,0 c 0,0.87515 -0.7095,1.5846 -1.5846,1.5846 -0.8752,0 -1.5846,-0.70945 -1.5846,-1.5846 0,-0.87514 0.7094,-1.5846 1.5846,-1.5846 0.8751,0 1.5846,0.70946 1.5846,1.5846 z m 7.2035,0 c 0,0.87515 -0.7095,1.5846 -1.5846,1.5846 -0.8752,0 -1.5846,-0.70945 -1.5846,-1.5846 0,-0.87514 0.7094,-1.5846 1.5846,-1.5846 0.8751,0 1.5846,0.70946 1.5846,1.5846 z m 7.2035,0 c 0,0.87515 -0.7095,1.5846 -1.5846,1.5846 -0.8752,0 -1.5846,-0.70945 -1.5846,-1.5846 0,-0.87514 0.7094,-1.5846 1.5846,-1.5846 0.8751,0 1.5846,0.70946 1.5846,1.5846 z m 7.2034,0 c 0,0.87515 -0.7094,1.5846 -1.5845,1.5846 -0.8752,0 -1.5846,-0.70945 -1.5846,-1.5846 0,-0.87514 0.7094,-1.5846 1.5846,-1.5846 0.8751,0 1.5845,0.70946 1.5845,1.5846 z m 7.2036,0 c 0,0.87515 -0.7095,1.5846 -1.5847,1.5846 -0.8751,0 -1.5845,-0.70945 -1.5845,-1.5846 0,-0.87514 0.7094,-1.5846 1.5845,-1.5846 0.8752,0 1.5847,0.70946 1.5847,1.5846 z m 7.2035,0 c 0,0.87515 -0.7095,1.5846 -1.5846,1.5846 -0.8752,0 -1.5846,-0.70945 -1.5846,-1.5846 0,-0.87514 0.7094,-1.5846 1.5846,-1.5846 0.8751,0 1.5846,0.70946 1.5846,1.5846 z m 7.2034,0 c 0,0.87515 -0.7094,1.5846 -1.5846,1.5846 -0.8751,0 -1.5845,-0.70945 -1.5845,-1.5846 0,-0.87514 0.7094,-1.5846 1.5845,-1.5846 0.8752,0 1.5846,0.70946 1.5846,1.5846 z m 7.2035,0 c 0,0.87515 -0.7094,1.5846 -1.5845,1.5846 -0.8752,0 -1.5847,-0.70945 -1.5847,-1.5846 0,-0.87514 0.7095,-1.5846 1.5847,-1.5846 0.8751,0 1.5845,0.70946 1.5845,1.5846 z m 7.2035,0 c 0,0.87515 -0.7094,1.5846 -1.5845,1.5846 -0.8752,0 -1.5847,-0.70945 -1.5847,-1.5846 0,-0.87514 0.7095,-1.5846 1.5847,-1.5846 0.8751,0 1.5845,0.70946 1.5845,1.5846 z m 7.2036,0 c 0,0.87515 -0.7095,1.5846 -1.5847,1.5846 -0.8751,0 -1.5846,-0.70945 -1.5846,-1.5846 0,-0.87514 0.7095,-1.5846 1.5846,-1.5846 0.8752,0 1.5847,0.70946 1.5847,1.5846 z m 7.2035,0 c 0,0.87515 -0.7095,1.5846 -1.5847,1.5846 -0.8751,0 -1.5845,-0.70945 -1.5845,-1.5846 0,-0.87514 0.7094,-1.5846 1.5845,-1.5846 0.8752,0 1.5847,0.70946 1.5847,1.5846 z m 7.2035004,0 c 0,0.87515 -0.7095,1.5846 -1.5846004,1.5846 -0.8752,0 -1.5846,-0.70945 -1.5846,-1.5846 0,-0.87514 0.7094,-1.5846 1.5846,-1.5846 0.8751004,0 1.5846004,0.70946 1.5846004,1.5846 z m 7.2035,0 c 0,0.87515 -0.7095,1.5846 -1.5846,1.5846 -0.8752,0 -1.5846,-0.70945 -1.5846,-1.5846 0,-0.87514 0.7094,-1.5846 1.5846,-1.5846 0.8751,0 1.5846,0.70946 1.5846,1.5846 z m 7.2034,0 c 0,0.87515 -0.7094,1.5846 -1.5846,1.5846 -0.8751,0 -1.5845,-0.70945 -1.5845,-1.5846 0,-0.87514 0.7094,-1.5846 1.5845,-1.5846 0.8752,0 1.5846,0.70946 1.5846,1.5846 z m 7.2035996,0 c 0,0.87515 -0.7095,1.5846 -1.5847,1.5846 -0.8751,0 -1.5845996,-0.70945 -1.5845996,-1.5846 0,-0.87514 0.7094996,-1.5846 1.5845996,-1.5846 0.8752,0 1.5847,0.70946 1.5847,1.5846 z m 7.2034,0 c 0,0.87515 -0.7094,1.5846 -1.5846,1.5846 -0.8751,0 -1.5845,-0.70945 -1.5845,-1.5846 0,-0.87514 0.7094,-1.5846 1.5845,-1.5846 0.8752,0 1.5846,0.70946 1.5846,1.5846 z m 7.2035,0 c 0,0.87515 -0.7094,1.5846 -1.5846,1.5846 -0.8751,0 -1.5846,-0.70945 -1.5846,-1.5846 0,-0.87514 0.7095,-1.5846 1.5846,-1.5846 0.8752,0 1.5846,0.70946 1.5846,1.5846 z m 7.2035,0 c 0,0.87515 -0.7094,1.5846 -1.5846,1.5846 -0.8751,0 -1.5846,-0.70945 -1.5846,-1.5846 0,-0.87514 0.7095,-1.5846 1.5846,-1.5846 0.8752,0 1.5846,0.70946 1.5846,1.5846 z m 7.2035,0 c 0,0.87515 -0.7094,1.5846 -1.5846,1.5846 -0.8751,0 -1.5846,-0.70945 -1.5846,-1.5846 0,-0.87514 0.7095,-1.5846 1.5846,-1.5846 0.8752,0 1.5846,0.70946 1.5846,1.5846 z m 7.2035,0 c 0,0.87515 -0.7095,1.5846 -1.5846,1.5846 -0.8751,0 -1.5846,-0.70945 -1.5846,-1.5846 0,-0.87514 0.7095,-1.5846 1.5846,-1.5846 0.8751,0 1.5846,0.70946 1.5846,1.5846 z m 7.2035,0 c 0,0.87515 -0.7095,1.5846 -1.5846,1.5846 -0.8752,0 -1.5846,-0.70945 -1.5846,-1.5846 0,-0.87514 0.7094,-1.5846 1.5846,-1.5846 0.8751,0 1.5846,0.70946 1.5846,1.5846 z m 7.2035,0 c 0,0.87515 -0.7095,1.5846 -1.5846,1.5846 -0.8752,0 -1.5846,-0.70945 -1.5846,-1.5846 0,-0.87514 0.7094,-1.5846 1.5846,-1.5846 0.8751,0 1.5846,0.70946 1.5846,1.5846 z m 7.2035,0 c 0,0.87515 -0.7095,1.5846 -1.5846,1.5846 -0.8752,0 -1.5846,-0.70945 -1.5846,-1.5846 0,-0.87514 0.7094,-1.5846 1.5846,-1.5846 0.8751,0 1.5846,0.70946 1.5846,1.5846 z m 7.2034,0 c 0,0.87515 -0.7094,1.5846 -1.5845,1.5846 -0.8752,0 -1.5846,-0.70945 -1.5846,-1.5846 0,-0.87514 0.7094,-1.5846 1.5846,-1.5846 0.8751,0 1.5845,0.70946 1.5845,1.5846 z m 7.2036,0 c 0,0.87515 -0.7095,1.5846 -1.5847,1.5846 -0.8751,0 -1.5845,-0.70945 -1.5845,-1.5846 0,-0.87514 0.7094,-1.5846 1.5845,-1.5846 0.8752,0 1.5847,0.70946 1.5847,1.5846 z m 7.2035,0 c 0,0.87515 -0.7095,1.5846 -1.5846,1.5846 -0.8752,0 -1.5846,-0.70945 -1.5846,-1.5846 0,-0.87514 0.7094,-1.5846 1.5846,-1.5846 0.8751,0 1.5846,0.70946 1.5846,1.5846 z m 7.2034,0 c 0,0.87515 -0.7094,1.5846 -1.5846,1.5846 -0.8751,0 -1.5845,-0.70945 -1.5845,-1.5846 0,-0.87514 0.7094,-1.5846 1.5845,-1.5846 0.8752,0 1.5846,0.70946 1.5846,1.5846 z m 7.203499,0 c 0,0.87515 -0.7094,1.5846 -1.5846,1.5846 -0.8751,0 -1.5846,-0.70945 -1.5846,-1.5846 0,-0.87514 0.7095,-1.5846 1.5846,-1.5846 0.8752,0 1.5846,0.70946 1.5846,1.5846 z m 7.2035,0 c 0,0.87515 -0.7094,1.5846 -1.5846,1.5846 -0.8751,0 -1.5846,-0.70945 -1.5846,-1.5846 0,-0.87514 0.7095,-1.5846 1.5846,-1.5846 0.8752,0 1.5846,0.70946 1.5846,1.5846 z m 7.2035,0 c 0,0.87515 -0.7095,1.5846 -1.5846,1.5846 -0.8751,0 -1.5846,-0.70945 -1.5846,-1.5846 0,-0.87514 0.7095,-1.5846 1.5846,-1.5846 0.8751,0 1.5846,0.70946 1.5846,1.5846 z m 7.2035,0 c 0,0.87515 -0.7095,1.5846 -1.5846,1.5846 -0.8752,0 -1.5846,-0.70945 -1.5846,-1.5846 0,-0.87514 0.7094,-1.5846 1.5846,-1.5846 0.8751,0 1.5846,0.70946 1.5846,1.5846 z m 7.2035,0 c 0,0.87515 -0.7095,1.5846 -1.5846,1.5846 -0.8752,0 -1.5846,-0.70945 -1.5846,-1.5846 0,-0.87514 0.7094,-1.5846 1.5846,-1.5846 0.8751,0 1.5846,0.70946 1.5846,1.5846 z m 7.2035,0 c 0,0.87515 -0.7095,1.5846 -1.5846,1.5846 -0.8752,0 -1.5846,-0.70945 -1.5846,-1.5846 0,-0.87514 0.7094,-1.5846 1.5846,-1.5846 0.8751,0 1.5846,0.70946 1.5846,1.5846 z m 7.2035,0 c 0,0.87515 -0.7095,1.5846 -1.5846,1.5846 -0.8752,0 -1.5846,-0.70945 -1.5846,-1.5846 0,-0.87514 0.7094,-1.5846 1.5846,-1.5846 0.8751,0 1.5846,0.70946 1.5846,1.5846 z m 7.2035,0 c 0,0.87515 -0.7095,1.5846 -1.5846,1.5846 -0.8752,0 -1.5846,-0.70945 -1.5846,-1.5846 0,-0.87514 0.7094,-1.5846 1.5846,-1.5846 0.8751,0 1.5846,0.70946 1.5846,1.5846 z m 7.2035,0 c 0,0.87515 -0.7095,1.5846 -1.5846,1.5846 -0.8752,0 -1.5846,-0.70945 -1.5846,-1.5846 0,-0.87514 0.7094,-1.5846 1.5846,-1.5846 0.8751,0 1.5846,0.70946 1.5846,1.5846 z m 7.2035,0 c 0,0.87515 -0.7095,1.5846 -1.5846,1.5846 -0.8752,0 -1.5846,-0.70945 -1.5846,-1.5846 0,-0.87514 0.7094,-1.5846 1.5846,-1.5846 0.8751,0 1.5846,0.70946 1.5846,1.5846 z m 7.2035,0 c 0,0.87515 -0.7095,1.5846 -1.5846,1.5846 -0.8752,0 -1.5846,-0.70945 -1.5846,-1.5846 0,-0.87514 0.7094,-1.5846 1.5846,-1.5846 0.8751,0 1.5846,0.70946 1.5846,1.5846 z m 7.2034,0 c 0,0.87515 -0.7094,1.5846 -1.5845,1.5846 -0.8752,0 -1.5846,-0.70945 -1.5846,-1.5846 0,-0.87514 0.7094,-1.5846 1.5846,-1.5846 0.8751,0 1.5845,0.70946 1.5845,1.5846 z m 7.2035,0 c 0,0.87515 -0.7094,1.5846 -1.5846,1.5846 -0.8751,0 -1.5846,-0.70945 -1.5846,-1.5846 0,-0.87514 0.7095,-1.5846 1.5846,-1.5846 0.8752,0 1.5846,0.70946 1.5846,1.5846 z m 7.2035,0 c 0,0.87515 -0.7094,1.5846 -1.5846,1.5846 -0.8751,0 -1.5846,-0.70945 -1.5846,-1.5846 0,-0.87514 0.7095,-1.5846 1.5846,-1.5846 0.8752,0 1.5846,0.70946 1.5846,1.5846 z m 7.2035,0 c 0,0.87515 -0.7094,1.5846 -1.5846,1.5846 -0.8751,0 -1.5846,-0.70945 -1.5846,-1.5846 0,-0.87514 0.7095,-1.5846 1.5846,-1.5846 0.8752,0 1.5846,0.70946 1.5846,1.5846 z m 7.2035,0 c 0,0.87515 -0.7094,1.5846 -1.5846,1.5846 -0.8751,0 -1.5846,-0.70945 -1.5846,-1.5846 0,-0.87514 0.7095,-1.5846 1.5846,-1.5846 0.8752,0 1.5846,0.70946 1.5846,1.5846 z m 14.407,0 c 0,0.87515 -0.7094,1.5846 -1.5845,1.5846 -0.8752,0 -1.5847,-0.70945 -1.5847,-1.5846 0,-0.87514 0.7095,-1.5846 1.5847,-1.5846 0.8751,0 1.5845,0.70946 1.5845,1.5846 z m -7.2035,0 c 0,0.87515 -0.7094,1.5846 -1.5846,1.5846 -0.8751,0 -1.5846,-0.70945 -1.5846,-1.5846 0,-0.87514 0.7095,-1.5846 1.5846,-1.5846 0.8752,0 1.5846,0.70946 1.5846,1.5846 z m 14.407,0 c 0,0.87515 -0.7094,1.5846 -1.5845,1.5846 -0.8752,0 -1.5847,-0.70945 -1.5847,-1.5846 0,-0.87514 0.7095,-1.5846 1.5847,-1.5846 0.8751,0 1.5845,0.70946 1.5845,1.5846 z m 7.2036,0 c 0,0.87515 -0.7095,1.5846 -1.5847,1.5846 -0.8751,0 -1.5845,-0.70945 -1.5845,-1.5846 0,-0.87514 0.7094,-1.5846 1.5845,-1.5846 0.8752,0 1.5847,0.70946 1.5847,1.5846 z m 7.2034,0 c 0,0.87515 -0.7094,1.5846 -1.5846,1.5846 -0.8751,0 -1.5845,-0.70945 -1.5845,-1.5846 0,-0.87514 0.7094,-1.5846 1.5845,-1.5846 0.8752,0 1.5846,0.70946 1.5846,1.5846 z m 7.2035,0 c 0,0.87515 -0.7094,1.5846 -1.5846,1.5846 -0.8751,0 -1.5846,-0.70945 -1.5846,-1.5846 0,-0.87514 0.7095,-1.5846 1.5846,-1.5846 0.8752,0 1.5846,0.70946 1.5846,1.5846 z m 7.2035,0 c 0,0.87515 -0.7094,1.5846 -1.5845,1.5846 -0.8752,0 -1.5847,-0.70945 -1.5847,-1.5846 0,-0.87514 0.7095,-1.5846 1.5847,-1.5846 0.8751,0 1.5845,0.70946 1.5845,1.5846 z m 7.2035,0 c 0,0.87515 -0.7094,1.5846 -1.5846,1.5846 -0.8751,0 -1.5846,-0.70945 -1.5846,-1.5846 0,-0.87514 0.7095,-1.5846 1.5846,-1.5846 0.8752,0 1.5846,0.70946 1.5846,1.5846 z m 7.2035,0 c 0,0.87515 -0.7094,1.5846 -1.5846,1.5846 -0.8751,0 -1.5846,-0.70945 -1.5846,-1.5846 0,-0.87514 0.7095,-1.5846 1.5846,-1.5846 0.8752,0 1.5846,0.70946 1.5846,1.5846 z m 7.2035,0 c 0,0.87515 -0.7094,1.5846 -1.5846,1.5846 -0.8751,0 -1.5846,-0.70945 -1.5846,-1.5846 0,-0.87514 0.7095,-1.5846 1.5846,-1.5846 0.8752,0 1.5846,0.70946 1.5846,1.5846 z m 7.2035,0 c 0,0.87515 -0.7094,1.5846 -1.5846,1.5846 -0.8751,0 -1.5846,-0.70945 -1.5846,-1.5846 0,-0.87514 0.7095,-1.5846 1.5846,-1.5846 0.8752,0 1.5846,0.70946 1.5846,1.5846 z m 7.2035,0 c 0,0.87515 -0.7094,1.5846 -1.5846,1.5846 -0.8751,0 -1.5846,-0.70945 -1.5846,-1.5846 0,-0.87514 0.7095,-1.5846 1.5846,-1.5846 0.8752,0 1.5846,0.70946 1.5846,1.5846 z m 7.2035,0 c 0,0.87515 -0.7094,1.5846 -1.5846,1.5846 -0.8751,0 -1.5846,-0.70945 -1.5846,-1.5846 0,-0.87514 0.7095,-1.5846 1.5846,-1.5846 0.8752,0 1.5846,0.70946 1.5846,1.5846 z m 7.2035,0 c 0,0.87515 -0.7095,1.5846 -1.5846,1.5846 -0.8751,0 -1.5846,-0.70945 -1.5846,-1.5846 0,-0.87514 0.7095,-1.5846 1.5846,-1.5846 0.8751,0 1.5846,0.70946 1.5846,1.5846 z m 43.2209,0 c 0,0.87515 -0.7094,1.5846 -1.5846,1.5846 -0.8751,0 -1.5846,-0.70945 -1.5846,-1.5846 0,-0.87514 0.7095,-1.5846 1.5846,-1.5846 0.8752,0 1.5846,0.70946 1.5846,1.5846 z m -14.4069,0 c 0,0.87515 -0.7095,1.5846 -1.5846,1.5846 -0.8752,0 -1.5846,-0.70945 -1.5846,-1.5846 0,-0.87514 0.7094,-1.5846 1.5846,-1.5846 0.8751,0 1.5846,0.70946 1.5846,1.5846 z m -21.6105,0 c 0,0.87515 -0.7095,1.5846 -1.5846,1.5846 -0.8752,0 -1.5846,-0.70945 -1.5846,-1.5846 0,-0.87514 0.7094,-1.5846 1.5846,-1.5846 0.8751,0 1.5846,0.70946 1.5846,1.5846 z m 7.2035,0 c 0,0.87515 -0.7095,1.5846 -1.5846,1.5846 -0.8752,0 -1.5846,-0.70945 -1.5846,-1.5846 0,-0.87514 0.7094,-1.5846 1.5846,-1.5846 0.8751,0 1.5846,0.70946 1.5846,1.5846 z m 7.2035,0 c 0,0.87515 -0.7095,1.5846 -1.5846,1.5846 -0.8752,0 -1.5846,-0.70945 -1.5846,-1.5846 0,-0.87514 0.7094,-1.5846 1.5846,-1.5846 0.8751,0 1.5846,0.70946 1.5846,1.5846 z m 14.4069,0 c 0,0.87515 -0.7094,1.5846 -1.5845,1.5846 -0.8752,0 -1.5846,-0.70945 -1.5846,-1.5846 0,-0.87514 0.7094,-1.5846 1.5846,-1.5846 0.8751,0 1.5845,0.70946 1.5845,1.5846 z m 14.407,0 c 0,0.87515 -0.7094,1.5846 -1.5846,1.5846 -0.8751,0 -1.5846,-0.70945 -1.5846,-1.5846 0,-0.87514 0.7095,-1.5846 1.5846,-1.5846 0.8752,0 1.5846,0.70946 1.5846,1.5846 z m 7.2035,0 c 0,0.87515 -0.7094,1.5846 -1.5846,1.5846 -0.8751,0 -1.5846,-0.70945 -1.5846,-1.5846 0,-0.87514 0.7095,-1.5846 1.5846,-1.5846 0.8752,0 1.5846,0.70946 1.5846,1.5846 z m 7.2035,0 c 0,0.87515 -0.7094,1.5846 -1.5846,1.5846 -0.8751,0 -1.5846,-0.70945 -1.5846,-1.5846 0,-0.87514 0.7095,-1.5846 1.5846,-1.5846 0.8752,0 1.5846,0.70946 1.5846,1.5846 z m 7.2035,0 c 0,0.87515 -0.7094,1.5846 -1.5846,1.5846 -0.8751,0 -1.5846,-0.70945 -1.5846,-1.5846 0,-0.87514 0.7095,-1.5846 1.5846,-1.5846 0.8752,0 1.5846,0.70946 1.5846,1.5846 z m 7.2035,0 c 0,0.87515 -0.7095,1.5846 -1.5846,1.5846 -0.8751,0 -1.5846,-0.70945 -1.5846,-1.5846 0,-0.87514 0.7095,-1.5846 1.5846,-1.5846 0.8751,0 1.5846,0.70946 1.5846,1.5846 z m 7.2035,0 c 0,0.87515 -0.7095,1.5846 -1.5846,1.5846 -0.8752,0 -1.5846,-0.70945 -1.5846,-1.5846 0,-0.87514 0.7094,-1.5846 1.5846,-1.5846 0.8751,0 1.5846,0.70946 1.5846,1.5846 z m 7.2035,0 c 0,0.87515 -0.7095,1.5846 -1.5846,1.5846 -0.8752,0 -1.5846,-0.70945 -1.5846,-1.5846 0,-0.87514 0.7094,-1.5846 1.5846,-1.5846 0.8751,0 1.5846,0.70946 1.5846,1.5846 z m 7.2035,0 c 0,0.87515 -0.7095,1.5846 -1.5846,1.5846 -0.8752,0 -1.5846,-0.70945 -1.5846,-1.5846 0,-0.87514 0.7094,-1.5846 1.5846,-1.5846 0.8751,0 1.5846,0.70946 1.5846,1.5846 z m 7.2035,0 c 0,0.87515 -0.7095,1.5846 -1.5846,1.5846 -0.8752,0 -1.5846,-0.70945 -1.5846,-1.5846 0,-0.87514 0.7094,-1.5846 1.5846,-1.5846 0.8751,0 1.5846,0.70946 1.5846,1.5846 z m 7.2035,0 c 0,0.87515 -0.7095,1.5846 -1.5846,1.5846 -0.8752,0 -1.5846,-0.70945 -1.5846,-1.5846 0,-0.87514 0.7094,-1.5846 1.5846,-1.5846 0.8751,0 1.5846,0.70946 1.5846,1.5846 z m 7.2034,0 c 0,0.87515 -0.7094,1.5846 -1.5846,1.5846 -0.8751,0 -1.5846,-0.70945 -1.5846,-1.5846 0,-0.87514 0.7095,-1.5846 1.5846,-1.5846 0.8752,0 1.5846,0.70946 1.5846,1.5846 z m 7.2035,0 c 0,0.87515 -0.7094,1.5846 -1.5846,1.5846 -0.8751,0 -1.5846,-0.70945 -1.5846,-1.5846 0,-0.87514 0.7095,-1.5846 1.5846,-1.5846 0.8752,0 1.5846,0.70946 1.5846,1.5846 z m 7.2035,0 c 0,0.87515 -0.7094,1.5846 -1.5846,1.5846 -0.8751,0 -1.5846,-0.70945 -1.5846,-1.5846 0,-0.87514 0.7095,-1.5846 1.5846,-1.5846 0.8752,0 1.5846,0.70946 1.5846,1.5846 z m 7.2035,0 c 0,0.87515 -0.7094,1.5846 -1.5846,1.5846 -0.8751,0 -1.5846,-0.70945 -1.5846,-1.5846 0,-0.87514 0.7095,-1.5846 1.5846,-1.5846 0.8752,0 1.5846,0.70946 1.5846,1.5846 z m 7.2035,0 c 0,0.87515 -0.7094,1.5846 -1.5846,1.5846 -0.8751,0 -1.5846,-0.70945 -1.5846,-1.5846 0,-0.87514 0.7095,-1.5846 1.5846,-1.5846 0.8752,0 1.5846,0.70946 1.5846,1.5846 z m 7.2035,0 c 0,0.87515 -0.7095,1.5846 -1.5846,1.5846 -0.8751,0 -1.5846,-0.70945 -1.5846,-1.5846 0,-0.87514 0.7095,-1.5846 1.5846,-1.5846 0.8751,0 1.5846,0.70946 1.5846,1.5846 z m 7.2035,0 c 0,0.87515 -0.7095,1.5846 -1.5846,1.5846 -0.8752,0 -1.5846,-0.70945 -1.5846,-1.5846 0,-0.87514 0.7094,-1.5846 1.5846,-1.5846 0.8751,0 1.5846,0.70946 1.5846,1.5846 z m 7.2035,0 c 0,0.87515 -0.7095,1.5846 -1.5846,1.5846 -0.8752,0 -1.5846,-0.70945 -1.5846,-1.5846 0,-0.87514 0.7094,-1.5846 1.5846,-1.5846 0.8751,0 1.5846,0.70946 1.5846,1.5846 z m 7.2035,0 c 0,0.87515 -0.7095,1.5846 -1.5846,1.5846 -0.8752,0 -1.5846,-0.70945 -1.5846,-1.5846 0,-0.87514 0.7094,-1.5846 1.5846,-1.5846 0.8751,0 1.5846,0.70946 1.5846,1.5846 z m 7.2035,0 c 0,0.87515 -0.7095,1.5846 -1.5846,1.5846 -0.8752,0 -1.5846,-0.70945 -1.5846,-1.5846 0,-0.87514 0.7094,-1.5846 1.5846,-1.5846 0.8751,0 1.5846,0.70946 1.5846,1.5846 z m 7.2035,0 c 0,0.87515 -0.7095,1.5846 -1.5846,1.5846 -0.8752,0 -1.5846,-0.70945 -1.5846,-1.5846 0,-0.87514 0.7094,-1.5846 1.5846,-1.5846 0.8751,0 1.5846,0.70946 1.5846,1.5846 z m 7.2035,0 c 0,0.87515 -0.7095,1.5846 -1.5846,1.5846 -0.8752,0 -1.5846,-0.70945 -1.5846,-1.5846 0,-0.87514 0.7094,-1.5846 1.5846,-1.5846 0.8751,0 1.5846,0.70946 1.5846,1.5846 z m 7.2034,0 c 0,0.87515 -0.7094,1.5846 -1.5845,1.5846 -0.8752,0 -1.5847,-0.70945 -1.5847,-1.5846 0,-0.87514 0.7095,-1.5846 1.5847,-1.5846 0.8751,0 1.5845,0.70946 1.5845,1.5846 z m 7.2035,0 c 0,0.87515 -0.7094,1.5846 -1.5846,1.5846 -0.8751,0 -1.5846,-0.70945 -1.5846,-1.5846 0,-0.87514 0.7095,-1.5846 1.5846,-1.5846 0.8752,0 1.5846,0.70946 1.5846,1.5846 z m 7.2035,0 c 0,0.87515 -0.7094,1.5846 -1.5846,1.5846 -0.8751,0 -1.5846,-0.70945 -1.5846,-1.5846 0,-0.87514 0.7095,-1.5846 1.5846,-1.5846 0.8752,0 1.5846,0.70946 1.5846,1.5846 z m 7.2035,0 c 0,0.87515 -0.7094,1.5846 -1.5846,1.5846 -0.8751,0 -1.5846,-0.70945 -1.5846,-1.5846 0,-0.87514 0.7095,-1.5846 1.5846,-1.5846 0.8752,0 1.5846,0.70946 1.5846,1.5846 z m 7.2035,0 c 0,0.87515 -0.7094,1.5846 -1.5846,1.5846 -0.8751,0 -1.5846,-0.70945 -1.5846,-1.5846 0,-0.87514 0.7095,-1.5846 1.5846,-1.5846 0.8752,0 1.5846,0.70946 1.5846,1.5846 z m 7.2035,0 c 0,0.87515 -0.7095,1.5846 -1.5846,1.5846 -0.8752,0 -1.5846,-0.70945 -1.5846,-1.5846 0,-0.87514 0.7094,-1.5846 1.5846,-1.5846 0.8751,0 1.5846,0.70946 1.5846,1.5846 z m 7.2035,0 c 0,0.87515 -0.7095,1.5846 -1.5846,1.5846 -0.8752,0 -1.5846,-0.70945 -1.5846,-1.5846 0,-0.87514 0.7094,-1.5846 1.5846,-1.5846 0.8751,0 1.5846,0.70946 1.5846,1.5846 z m 7.2035,0 c 0,0.87515 -0.7095,1.5846 -1.5846,1.5846 -0.8752,0 -1.5846,-0.70945 -1.5846,-1.5846 0,-0.87514 0.7094,-1.5846 1.5846,-1.5846 0.8751,0 1.5846,0.70946 1.5846,1.5846 z m 7.2035,0 c 0,0.87515 -0.7095,1.5846 -1.5846,1.5846 -0.8752,0 -1.5846,-0.70945 -1.5846,-1.5846 0,-0.87514 0.7094,-1.5846 1.5846,-1.5846 0.8751,0 1.5846,0.70946 1.5846,1.5846 z m 7.2035,0 c 0,0.87515 -0.7095,1.5846 -1.5846,1.5846 -0.8752,0 -1.5846,-0.70945 -1.5846,-1.5846 0,-0.87514 0.7094,-1.5846 1.5846,-1.5846 0.8751,0 1.5846,0.70946 1.5846,1.5846 z m 7.2035,0 c 0,0.87515 -0.7095,1.5846 -1.5846,1.5846 -0.8752,0 -1.5846,-0.70945 -1.5846,-1.5846 0,-0.87514 0.7094,-1.5846 1.5846,-1.5846 0.8751,0 1.5846,0.70946 1.5846,1.5846 z m 7.2034,0 c 0,0.87515 -0.7094,1.5846 -1.5846,1.5846 -0.8751,0 -1.5846,-0.70945 -1.5846,-1.5846 0,-0.87514 0.7095,-1.5846 1.5846,-1.5846 0.8752,0 1.5846,0.70946 1.5846,1.5846 z m 7.2035,0 c 0,0.87515 -0.7094,1.5846 -1.5846,1.5846 -0.8751,0 -1.5846,-0.70945 -1.5846,-1.5846 0,-0.87514 0.7095,-1.5846 1.5846,-1.5846 0.8752,0 1.5846,0.70946 1.5846,1.5846 z m 7.2035,0 c 0,0.87515 -0.7094,1.5846 -1.5846,1.5846 -0.8751,0 -1.5846,-0.70945 -1.5846,-1.5846 0,-0.87514 0.7095,-1.5846 1.5846,-1.5846 0.8752,0 1.5846,0.70946 1.5846,1.5846 z m 7.2035,0 c 0,0.87515 -0.7094,1.5846 -1.5846,1.5846 -0.8751,0 -1.5846,-0.70945 -1.5846,-1.5846 0,-0.87514 0.7095,-1.5846 1.5846,-1.5846 0.8752,0 1.5846,0.70946 1.5846,1.5846 z m 7.2035,0 c 0,0.87515 -0.7094,1.5846 -1.5846,1.5846 -0.8751,0 -1.5846,-0.70945 -1.5846,-1.5846 0,-0.87514 0.7095,-1.5846 1.5846,-1.5846 0.8752,0 1.5846,0.70946 1.5846,1.5846 z m 7.2035,0 c 0,0.87515 -0.7095,1.5846 -1.5846,1.5846 -0.8751,0 -1.5846,-0.70945 -1.5846,-1.5846 0,-0.87514 0.7095,-1.5846 1.5846,-1.5846 0.8751,0 1.5846,0.70946 1.5846,1.5846 z m 7.2035,0 c 0,0.87515 -0.7095,1.5846 -1.5846,1.5846 -0.8752,0 -1.5846,-0.70945 -1.5846,-1.5846 0,-0.87514 0.7094,-1.5846 1.5846,-1.5846 0.8751,0 1.5846,0.70946 1.5846,1.5846 z m 7.2035,0 c 0,0.87515 -0.7095,1.5846 -1.5846,1.5846 -0.8752,0 -1.5846,-0.70945 -1.5846,-1.5846 0,-0.87514 0.7094,-1.5846 1.5846,-1.5846 0.8751,0 1.5846,0.70946 1.5846,1.5846 z m 7.2035,0 c 0,0.87515 -0.7095,1.5846 -1.5846,1.5846 -0.8752,0 -1.5846,-0.70945 -1.5846,-1.5846 0,-0.87514 0.7094,-1.5846 1.5846,-1.5846 0.8751,0 1.5846,0.70946 1.5846,1.5846 z m 7.2035,0 c 0,0.87515 -0.7095,1.5846 -1.5846,1.5846 -0.8752,0 -1.5846,-0.70945 -1.5846,-1.5846 0,-0.87514 0.7094,-1.5846 1.5846,-1.5846 0.8751,0 1.5846,0.70946 1.5846,1.5846 z m 7.2035,0 c 0,0.87515 -0.7095,1.5846 -1.5846,1.5846 -0.8752,0 -1.5846,-0.70945 -1.5846,-1.5846 0,-0.87514 0.7094,-1.5846 1.5846,-1.5846 0.8751,0 1.5846,0.70946 1.5846,1.5846 z m 7.2034,0 c 0,0.87515 -0.7094,1.5846 -1.5846,1.5846 -0.8751,0 -1.5846,-0.70945 -1.5846,-1.5846 0,-0.87514 0.7095,-1.5846 1.5846,-1.5846 0.8752,0 1.5846,0.70946 1.5846,1.5846 z m 7.2035,0 c 0,0.87515 -0.7094,1.5846 -1.5846,1.5846 -0.8751,0 -1.5846,-0.70945 -1.5846,-1.5846 0,-0.87514 0.7095,-1.5846 1.5846,-1.5846 0.8752,0 1.5846,0.70946 1.5846,1.5846 z m 7.2035,0 c 0,0.87515 -0.7094,1.5846 -1.5846,1.5846 -0.8751,0 -1.5846,-0.70945 -1.5846,-1.5846 0,-0.87514 0.7095,-1.5846 1.5846,-1.5846 0.8752,0 1.5846,0.70946 1.5846,1.5846 z m 7.2035,0 c 0,0.87515 -0.7094,1.5846 -1.5846,1.5846 -0.8751,0 -1.5846,-0.70945 -1.5846,-1.5846 0,-0.87514 0.7095,-1.5846 1.5846,-1.5846 0.8752,0 1.5846,0.70946 1.5846,1.5846 z m 7.2035,0 c 0,0.87515 -0.7094,1.5846 -1.5846,1.5846 -0.8751,0 -1.5846,-0.70945 -1.5846,-1.5846 0,-0.87514 0.7095,-1.5846 1.5846,-1.5846 0.8752,0 1.5846,0.70946 1.5846,1.5846 z m 7.2035,0 c 0,0.87515 -0.7095,1.5846 -1.5846,1.5846 -0.8751,0 -1.5846,-0.70945 -1.5846,-1.5846 0,-0.87514 0.7095,-1.5846 1.5846,-1.5846 0.8751,0 1.5846,0.70946 1.5846,1.5846 z m 7.2035,0 c 0,0.87515 -0.7095,1.5846 -1.5846,1.5846 -0.8752,0 -1.5846,-0.70945 -1.5846,-1.5846 0,-0.87514 0.7094,-1.5846 1.5846,-1.5846 0.8751,0 1.5846,0.70946 1.5846,1.5846 z m 7.2035,0 c 0,0.87515 -0.7095,1.5846 -1.5846,1.5846 -0.8752,0 -1.5846,-0.70945 -1.5846,-1.5846 0,-0.87514 0.7094,-1.5846 1.5846,-1.5846 0.8751,0 1.5846,0.70946 1.5846,1.5846 z m 7.2035,0 c 0,0.87515 -0.7095,1.5846 -1.5846,1.5846 -0.8752,0 -1.5846,-0.70945 -1.5846,-1.5846 0,-0.87514 0.7094,-1.5846 1.5846,-1.5846 0.8751,0 1.5846,0.70946 1.5846,1.5846 z m 7.2035,0 c 0,0.87515 -0.7095,1.5846 -1.5846,1.5846 -0.8752,0 -1.5846,-0.70945 -1.5846,-1.5846 0,-0.87514 0.7094,-1.5846 1.5846,-1.5846 0.8751,0 1.5846,0.70946 1.5846,1.5846 z m 7.2035,0 c 0,0.87515 -0.7095,1.5846 -1.5846,1.5846 -0.8752,0 -1.5846,-0.70945 -1.5846,-1.5846 0,-0.87514 0.7094,-1.5846 1.5846,-1.5846 0.8751,0 1.5846,0.70946 1.5846,1.5846 z m 7.2035,0 c 0,0.87515 -0.7095,1.5846 -1.5846,1.5846 -0.8752,0 -1.5846,-0.70945 -1.5846,-1.5846 0,-0.87514 0.7094,-1.5846 1.5846,-1.5846 0.8751,0 1.5846,0.70946 1.5846,1.5846 z m 7.2035,0 c 0,0.87515 -0.7095,1.5846 -1.5846,1.5846 -0.8752,0 -1.5846,-0.70945 -1.5846,-1.5846 0,-0.87514 0.7094,-1.5846 1.5846,-1.5846 0.8751,0 1.5846,0.70946 1.5846,1.5846 z m 14.407,0 c 0,0.87515 -0.7095,1.5846 -1.5846,1.5846 -0.8752,0 -1.5846,-0.70945 -1.5846,-1.5846 0,-0.87514 0.7094,-1.5846 1.5846,-1.5846 0.8751,0 1.5846,0.70946 1.5846,1.5846 z m -7.2035,0 c 0,0.87515 -0.7095,1.5846 -1.5846,1.5846 -0.8752,0 -1.5846,-0.70945 -1.5846,-1.5846 0,-0.87514 0.7094,-1.5846 1.5846,-1.5846 0.8751,0 1.5846,0.70946 1.5846,1.5846 z m 14.407,0 c 0,0.87515 -0.7095,1.5846 -1.5846,1.5846 -0.8752,0 -1.5847,-0.70945 -1.5847,-1.5846 0,-0.87514 0.7095,-1.5846 1.5847,-1.5846 0.8751,0 1.5846,0.70946 1.5846,1.5846 z m 7.2034,0 c 0,0.87515 -0.7094,1.5846 -1.5846,1.5846 -0.8751,0 -1.5846,-0.70945 -1.5846,-1.5846 0,-0.87514 0.7095,-1.5846 1.5846,-1.5846 0.8752,0 1.5846,0.70946 1.5846,1.5846 z m 7.2035,0 c 0,0.87515 -0.7094,1.5846 -1.5846,1.5846 -0.8751,0 -1.5846,-0.70945 -1.5846,-1.5846 0,-0.87514 0.7095,-1.5846 1.5846,-1.5846 0.8752,0 1.5846,0.70946 1.5846,1.5846 z m 7.2035,0 c 0,0.87515 -0.7094,1.5846 -1.5846,1.5846 -0.8751,0 -1.5846,-0.70945 -1.5846,-1.5846 0,-0.87514 0.7095,-1.5846 1.5846,-1.5846 0.8752,0 1.5846,0.70946 1.5846,1.5846 z m 7.2035,0 c 0,0.87515 -0.7094,1.5846 -1.5846,1.5846 -0.8751,0 -1.5846,-0.70945 -1.5846,-1.5846 0,-0.87514 0.7095,-1.5846 1.5846,-1.5846 0.8752,0 1.5846,0.70946 1.5846,1.5846 z m 7.2035,0 c 0,0.87515 -0.7094,1.5846 -1.5846,1.5846 -0.8752,0 -1.5846,-0.70945 -1.5846,-1.5846 0,-0.87514 0.7094,-1.5846 1.5846,-1.5846 0.8752,0 1.5846,0.70946 1.5846,1.5846 z m 7.2035,0 c 0,0.87515 -0.7095,1.5846 -1.5846,1.5846 -0.8751,0 -1.5846,-0.70945 -1.5846,-1.5846 0,-0.87514 0.7095,-1.5846 1.5846,-1.5846 0.8751,0 1.5846,0.70946 1.5846,1.5846 z m 7.2035,0 c 0,0.87515 -0.7095,1.5846 -1.5846,1.5846 -0.8752,0 -1.5846,-0.70945 -1.5846,-1.5846 0,-0.87514 0.7094,-1.5846 1.5846,-1.5846 0.8751,0 1.5846,0.70946 1.5846,1.5846 z m 7.2035,0 c 0,0.87515 -0.7095,1.5846 -1.5846,1.5846 -0.8752,0 -1.5846,-0.70945 -1.5846,-1.5846 0,-0.87514 0.7094,-1.5846 1.5846,-1.5846 0.8751,0 1.5846,0.70946 1.5846,1.5846 z m 7.2035,0 c 0,0.87515 -0.7095,1.5846 -1.5846,1.5846 -0.8752,0 -1.5846,-0.70945 -1.5846,-1.5846 0,-0.87514 0.7094,-1.5846 1.5846,-1.5846 0.8751,0 1.5846,0.70946 1.5846,1.5846 z"
       style="fill:url(#linearGradient7476);fill-opacity:1;fill-rule:evenodd;stroke:none;display:inline"
       id="path3076-55-4-5" />
  </g>
</svg>
